<?xml version="1.0" standalone="no"?>
<!DOCTYPE svg PUBLIC "-//W3C//DTD SVG 20010904//EN"
 "http://www.w3.org/TR/2001/REC-SVG-20010904/DTD/svg10.dtd">
<svg version="1.0" xmlns="http://www.w3.org/2000/svg"
 width="863.000000pt" height="750.000000pt" viewBox="0 0 863.000000 750.000000"
 preserveAspectRatio="xMidYMid meet">

<g transform="translate(0.000000,750.000000) scale(0.100000,-0.100000)"
fill="#000000" stroke="none">
<path d="M6311 6861 c8 -10 52 -61 97 -112 105 -117 286 -358 384 -509 424
-651 675 -1414 728 -2205 64 -961 -199 -1963 -728 -2775 -130 -200 -395 -541
-465 -599 -9 -7 -17 -17 -17 -22 0 -5 288 -9 659 -9 l660 0 74 118 c234 370
446 817 581 1225 382 1154 382 2400 0 3554 -137 415 -367 896 -599 1253 l-64
100 -662 0 c-645 0 -661 0 -648 -19z"/>
<path d="M915 6661 c-36 -55 -99 -159 -140 -232 -853 -1484 -981 -3279 -348
-4879 117 -296 319 -690 485 -948 l60 -92 664 0 663 0 -80 103 c-291 371 -559
861 -732 1338 -493 1360 -359 2881 365 4149 83 144 270 424 367 548 45 57 81
105 81 107 0 3 -297 5 -660 5 l-661 0 -64 -99z"/>
<path d="M2110 3865 l0 -2235 430 0 430 0 0 513 0 513 194 204 c107 113 199
206 204 208 5 1 190 -321 412 -718 l404 -720 464 0 464 0 -19 33 c-11 17 -277
479 -593 1025 l-573 993 40 42 c171 180 1063 1137 1063 1141 0 4 -237 6 -527
5 l-528 0 -495 -564 c-272 -311 -498 -565 -502 -565 -5 0 -8 531 -8 1180 l0
1180 -430 0 -430 0 0 -2235z"/>
<path d="M5600 5705 l0 -395 430 0 430 0 0 395 0 395 -430 0 -430 0 0 -395z"/>
<path d="M5597 3113 c-2 -1442 -5 -1766 -16 -1801 -19 -60 -98 -144 -163 -173
-45 -20 -69 -24 -163 -24 -60 0 -135 4 -166 8 l-55 9 -74 -362 c-43 -212 -69
-365 -64 -370 12 -12 289 -67 399 -80 276 -31 517 3 715 102 89 44 118 65 191
138 140 139 195 274 236 571 15 112 17 305 20 1932 l4 1807 -430 0 -431 0 -3
-1757z"/>
</g>
</svg>
